<?xml version="1.0" encoding="UTF-8"?>
<svg version="1.1" xmlns="http://www.w3.org/2000/svg" width="1327" height="1327">
<path d="M0 0 C4.83096362 0.00767543 9.66189882 -0.00219527 14.49285831 -0.00973 C22.94295974 -0.02052181 31.39300358 -0.02026311 39.8431076 -0.01258852 C52.40903821 -0.00120703 64.97492054 -0.00705992 77.54085086 -0.01621344 C99.98796914 -0.03198695 122.43506176 -0.03065094 144.88218246 -0.0219767 C164.52630925 -0.01442311 184.17042665 -0.01246316 203.81455459 -0.01604463 C205.1187748 -0.01627379 206.422995 -0.01650294 207.76673704 -0.01673904 C213.06130164 -0.01767309 218.35586624 -0.0186283 223.65043083 -0.01961833 C238.4493149 -0.0223526 253.24819898 -0.02408102 268.04708327 -0.02497675 C268.7208908 -0.02501768 269.39469832 -0.02505862 270.08892426 -0.0251008 C291.54717717 -0.02632794 313.00542684 -0.02295154 334.46367873 -0.01642801 C335.1592698 -0.01621726 335.85486086 -0.01600652 336.57153044 -0.01578938 C347.86622423 -0.01235487 359.16091794 -0.00869633 370.45561164 -0.00501886 C415.24676691 0.00954923 460.03789528 0.00887304 504.82905044 -0.00571062 C516.11815869 -0.00937443 527.40726694 -0.01300769 538.69637527 -0.01642801 C539.39156383 -0.01663936 540.0867524 -0.0168507 540.80300729 -0.01706845 C562.2396622 -0.02354066 583.67631487 -0.02627914 605.11297072 -0.02497675 C605.78627835 -0.02493599 606.45958597 -0.02489524 607.15329686 -0.02485325 C622.59924342 -0.02387359 638.04518965 -0.02176208 653.49113597 -0.01887383 C658.77592378 -0.01791171 664.06071159 -0.01697319 669.34549941 -0.01604463 C671.29730191 -0.01568879 671.29730191 -0.01568879 673.28853475 -0.01532575 C692.91789884 -0.01191668 712.54725249 -0.01589792 732.17661513 -0.02348329 C754.5012739 -0.03206732 776.82590305 -0.02990322 799.15055813 -0.01364106 C811.63714705 -0.00484481 824.12367179 -0.00423896 836.61025902 -0.01557958 C844.95953296 -0.02232483 853.30875563 -0.01808743 861.658022 -0.00506528 C866.40918505 0.00204442 871.16022095 0.00456704 875.91137983 -0.00628323 C912.1036315 -0.08292443 912.1036315 -0.08292443 929.580027 3.38540266 C931.38282512 3.7408023 931.38282512 3.7408023 933.22204341 4.10338174 C936.03250717 4.68678328 938.80206462 5.35141952 941.580027 6.07290266 C943.06937759 6.45527083 943.06937759 6.45527083 944.58881606 6.8453636 C974.63609353 14.84713619 1003.32984651 29.62893238 1026.580027 50.38540266 C1027.31140884 51.03654036 1027.31140884 51.03654036 1028.05756606 51.70083235 C1031.61360614 54.87880688 1035.10928362 58.11451951 1038.580027 61.38540266 C1039.3122145 62.0750511 1040.044402 62.76469954 1040.798777 63.47524641 C1054.96326147 77.21816885 1066.39562722 94.13441446 1075.59369887 111.52260969 C1076.51634022 113.26512294 1077.46144688 114.99568899 1078.408152 116.72524641 C1085.59309813 130.33457005 1090.75566663 145.01171301 1094.392527 159.94790266 C1094.57509048 160.6879051 1094.75765395 161.42790755 1094.94574966 162.1903343 C1095.56481382 164.9109584 1096.07080955 167.64182503 1096.580027 170.38540266 C1096.9516795 172.27862627 1096.9516795 172.27862627 1097.33084013 174.21009682 C1100.43410907 191.61022016 1100.00567693 209.16590629 1099.96542966 226.77043646 C1099.9577541 231.59626707 1099.96762498 236.42206923 1099.97515966 241.2478957 C1099.98595138 249.68898477 1099.98569283 258.13001619 1099.97801818 266.57110785 C1099.96663661 279.12363722 1099.97248963 291.67611827 1099.9816431 304.22864735 C1099.99741655 326.65183741 1099.99608063 349.07500179 1099.98740636 371.49819428 C1099.97985275 391.12138168 1099.97789283 410.74455968 1099.9814743 430.36774824 C1099.98170345 431.67058211 1099.98193261 432.97341597 1099.98216871 434.31572964 C1099.98310276 439.6046673 1099.98405796 444.89360495 1099.985048 450.1825426 C1099.98778226 464.96569548 1099.98951068 479.74884837 1099.99040641 494.53200148 C1099.99044735 495.20509255 1099.99048828 495.87818362 1099.99053046 496.57167139 C1099.9917576 518.00708334 1099.98838121 539.44249204 1099.98185767 560.87790297 C1099.98164693 561.57275284 1099.98143618 562.26760271 1099.98121905 562.98350863 C1099.97778454 574.26616468 1099.97412599 585.54882065 1099.97044852 596.83147662 C1099.95588043 641.57488416 1099.95655662 686.31826477 1099.97114028 731.06167219 C1099.9748041 742.33874889 1099.97843735 753.61582559 1099.98185767 764.89290236 C1099.98217469 765.93457408 1099.98217469 765.93457408 1099.98249811 766.99728967 C1099.98897033 788.41112816 1099.9917088 809.82496441 1099.99040641 831.23880385 C1099.99034528 832.24769138 1099.99034528 832.24769138 1099.99028292 833.27696048 C1099.98930326 848.70648871 1099.98719174 864.13601661 1099.98430349 879.56554459 C1099.98334137 884.84471542 1099.98240285 890.12388625 1099.9814743 895.40305708 C1099.98111845 897.35278485 1099.98111845 897.35278485 1099.98075541 899.34190106 C1099.97734635 918.95033358 1099.98132756 938.55875565 1099.98891295 958.16718672 C1099.99749701 980.46805693 1099.99533282 1002.76889748 1099.97907072 1025.069764 C1099.97027452 1037.54302223 1099.96966855 1050.01621622 1099.98100925 1062.48947276 C1099.98775455 1070.82986084 1099.98351698 1079.17019761 1099.97049494 1087.51057811 C1099.96338532 1092.256666 1099.96086245 1097.00262661 1099.97171289 1101.74871032 C1100.04835674 1137.90299896 1100.04835674 1137.90299896 1096.580027 1155.38540266 C1096.22462736 1157.18827419 1096.22462736 1157.18827419 1095.86204793 1159.02756737 C1095.27862861 1161.83797404 1094.61399707 1164.60749063 1093.892527 1167.38540266 C1093.51015884 1168.87475325 1093.51015884 1168.87475325 1093.12006606 1170.39419173 C1085.11829348 1200.44146919 1070.33649728 1229.13522217 1049.580027 1252.38540266 C1049.1459352 1252.87299055 1048.71184341 1253.36057844 1048.26459731 1253.86294173 C1045.08662279 1257.4189818 1041.85091015 1260.91465929 1038.580027 1264.38540266 C1037.89037856 1265.11759016 1037.20073012 1265.84977766 1036.49018325 1266.60415266 C1022.74726081 1280.76863714 1005.8310152 1292.20100288 988.44281997 1301.39907454 C986.70030672 1302.32171589 984.96974068 1303.26682255 983.24018325 1304.21352766 C969.63085962 1311.39847379 954.95371665 1316.5610423 940.017527 1320.19790266 C939.27752456 1320.38046614 938.53752212 1320.56302962 937.77509536 1320.75112532 C935.05447409 1321.37018884 932.32359728 1321.87616384 929.580027 1322.38540266 C928.31831837 1322.63317099 927.05660974 1322.88093933 925.75666751 1323.13621579 C908.3452687 1326.24234789 890.77611286 1325.81103526 873.160054 1325.77080533 C868.32909038 1325.7631299 863.49815518 1325.77300059 858.66719569 1325.78053532 C850.21709426 1325.79132714 841.76705042 1325.79106843 833.3169464 1325.78339384 C820.75101579 1325.77201236 808.18513346 1325.77786525 795.61920314 1325.78701876 C773.17208486 1325.80279228 750.72499224 1325.80145627 728.27787153 1325.79278203 C708.63374475 1325.78522843 688.98962735 1325.78326849 669.34549941 1325.78684996 C668.0412792 1325.78707911 666.73705899 1325.78730827 665.39331696 1325.78754437 C660.09875236 1325.78847842 654.80418776 1325.78943362 649.50962317 1325.79042366 C634.7107391 1325.79315792 619.91185502 1325.79488635 605.11297072 1325.79578207 C604.4391632 1325.79582301 603.76535567 1325.79586395 603.07112974 1325.79590612 C581.61287683 1325.79713327 560.15462716 1325.79375687 538.69637527 1325.78723334 C538.0007842 1325.78702259 537.30519314 1325.78681184 536.58852355 1325.78659471 C525.29382977 1325.7831602 513.99913606 1325.77950165 502.70444236 1325.77582419 C457.91328709 1325.76125609 413.12215872 1325.76193228 368.33100356 1325.77651594 C357.04189531 1325.78017976 345.75278706 1325.78381301 334.46367873 1325.78723334 C333.76849017 1325.78744468 333.0733016 1325.78765602 332.35704671 1325.78787377 C310.9203918 1325.79434599 289.48373913 1325.79708446 268.04708327 1325.79578207 C267.37377565 1325.79574132 266.70046803 1325.79570057 266.00675714 1325.79565858 C250.56081058 1325.79467892 235.11486435 1325.79256741 219.66891803 1325.78967915 C214.38413022 1325.78871703 209.0993424 1325.78777851 203.81455459 1325.78684996 C201.86275209 1325.78649411 201.86275209 1325.78649411 199.87151925 1325.78613107 C180.24215516 1325.782722 160.61280151 1325.78670325 140.98343886 1325.79428862 C118.6587801 1325.80287264 96.33415095 1325.80070855 74.00949587 1325.78444639 C61.52290695 1325.77565013 49.03638221 1325.77504429 36.54979498 1325.78638491 C28.20052104 1325.79313016 19.85129837 1325.78889275 11.502032 1325.7758706 C6.75086895 1325.7687609 1.99983305 1325.76623829 -2.75132583 1325.77708855 C-38.94357751 1325.85372975 -38.94357751 1325.85372975 -56.419973 1322.38540266 C-57.62183842 1322.14846957 -58.82370383 1321.91153647 -60.06198941 1321.66742359 C-62.87245317 1321.08402204 -65.64201062 1320.41938581 -68.419973 1319.69790266 C-69.90932359 1319.3155345 -69.90932359 1319.3155345 -71.42876206 1318.92544173 C-101.47603953 1310.92366914 -130.16979251 1296.14187294 -153.419973 1275.38540266 C-153.90756089 1274.95131087 -154.39514878 1274.51721907 -154.89751206 1274.06997298 C-158.45355214 1270.89199845 -161.94922962 1267.65628582 -165.419973 1264.38540266 C-166.1521605 1263.69575423 -166.884348 1263.00610579 -167.638723 1262.29555891 C-181.80320747 1248.55263648 -193.23557322 1231.63639087 -202.43364488 1214.24819563 C-203.35628623 1212.50568239 -204.30139288 1210.77511634 -205.248098 1209.04555891 C-212.43304413 1195.43623528 -217.59561264 1180.75909231 -221.232473 1165.82290266 C-221.50631822 1164.712899 -221.50631822 1164.712899 -221.78569566 1163.58047102 C-222.40475982 1160.85984692 -222.91075556 1158.1289803 -223.419973 1155.38540266 C-223.66774133 1154.12325359 -223.91550966 1152.86110452 -224.17078613 1151.56070851 C-227.27405507 1134.16058516 -226.84562293 1116.60489903 -226.80537566 1099.00036887 C-226.79770011 1094.17453826 -226.80757098 1089.34873609 -226.81510566 1084.52290962 C-226.82589738 1076.08182056 -226.82563883 1067.64078914 -226.81796418 1059.19969748 C-226.80658261 1046.6471681 -226.81243563 1034.09468706 -226.8215891 1021.54215798 C-226.83736255 999.11896791 -226.83602663 976.69580354 -226.82735237 954.27261105 C-226.81979875 934.64942364 -226.81783884 915.02624564 -226.8214203 895.40305708 C-226.82164945 894.10022322 -226.82187861 892.79738936 -226.82211471 891.45507568 C-226.82304876 886.16613803 -226.82400396 880.87720038 -226.824994 875.58826273 C-226.82772826 860.80510985 -226.82945669 846.02195695 -226.83035241 831.23880385 C-226.83039335 830.56571278 -226.83043429 829.89262171 -226.83047646 829.19913394 C-226.8317036 807.76372199 -226.82832721 786.32831329 -226.82180367 764.89290236 C-226.82148755 763.85062755 -226.82148755 763.85062755 -226.82116505 762.78729669 C-226.81773054 751.50464065 -226.81407199 740.22198467 -226.81039453 728.9393287 C-226.79582643 684.19592116 -226.79650262 639.45254056 -226.81108628 594.70913313 C-226.8147501 583.43205644 -226.81838335 572.15497974 -226.82180367 560.87790297 C-226.82201502 560.18345515 -226.82222636 559.48900734 -226.82244411 558.77351565 C-226.82891633 537.35967717 -226.8316548 515.94584092 -226.83035241 494.53200148 C-226.83031166 493.85940979 -226.8302709 493.1868181 -226.83022892 492.49384484 C-226.82924926 477.06431662 -226.82713774 461.63478872 -226.82424949 446.20526074 C-226.82328737 440.92608991 -226.82234885 435.64691908 -226.8214203 430.36774824 C-226.82118306 429.06792973 -226.82094583 427.76811122 -226.82070141 426.42890427 C-226.81729235 406.82047175 -226.82127356 387.21204968 -226.82885896 367.60361861 C-226.83744301 345.3027484 -226.83527882 323.00190784 -226.81901672 300.70104132 C-226.81022052 288.22778309 -226.80961455 275.75458911 -226.82095525 263.28133257 C-226.82770056 254.94094448 -226.82346298 246.60060772 -226.81044094 238.26022721 C-226.80333133 233.51413933 -226.80080845 228.76817872 -226.81165889 224.02209501 C-226.88830274 187.86780636 -226.88830274 187.86780636 -223.419973 170.38540266 C-223.18303991 169.18348831 -222.94610681 167.98157396 -222.70199393 166.74323796 C-222.11857461 163.93283128 -221.45394307 161.1633147 -220.732473 158.38540266 C-220.47756089 157.39250227 -220.22264878 156.39960188 -219.96001206 155.3766136 C-211.95823948 125.32933613 -197.17644328 96.63558315 -176.419973 73.38540266 C-175.9858812 72.89781477 -175.55178941 72.41022688 -175.10454331 71.9078636 C-171.92656879 68.35182353 -168.69085615 64.85614604 -165.419973 61.38540266 C-164.73032456 60.65321516 -164.04067613 59.92102766 -163.33012925 59.16665266 C-149.58720682 45.00216819 -132.6709612 33.56980244 -115.28276597 24.37173079 C-113.54025273 23.44908944 -111.80968668 22.50398278 -110.08012925 21.55727766 C-96.47080562 14.37233153 -81.79366265 9.20976303 -66.857473 5.57290266 C-66.11747056 5.39033919 -65.37746812 5.20777571 -64.61504136 5.01968001 C-61.89442009 4.40061648 -59.16354328 3.89464149 -56.419973 3.38540266 C-55.15826437 3.13763433 -53.89655574 2.889866 -52.59661351 2.63458954 C-35.1852147 -0.47154257 -17.61605886 -0.04022994 0 0 Z " fill="#0B0C10" transform="translate(226.41997300088406,-0.38540266267955303)"/>
<path d="M0 0 C111.21 0 222.42 0 337 0 C337 28.71 337 57.42 337 87 C260.44 87 183.88 87 105 87 C105 126.27 105 165.54 105 206 C175.62 206 246.24 206 319 206 C319 234.71 319 263.42 319 293 C248.38 293 177.76 293 105 293 C105 332.6 105 372.2 105 413 C181.89 413 258.78 413 338 413 C338 441.71 338 470.42 338 500 C226.46 500 114.92 500 0 500 C0 335 0 170 0 0 Z " fill="#65FBF0" transform="translate(755,404)"/>
<path d="M0 0 C0.95326172 0.16097168 1.90652344 0.32194336 2.88867188 0.48779297 C52.00640177 8.89205938 100.46685458 33.80132966 131 74 C131.44730469 74.57282715 131.89460938 75.1456543 132.35546875 75.73583984 C152.7357832 102.01388228 165.79760902 134.22274035 170.6875 167.0625 C170.81705078 167.88943359 170.94660156 168.71636719 171.08007812 169.56835938 C171.57082645 172.76471487 172 175.75953408 172 179 C136.36 179 100.72 179 64 179 C62.68 172.4 61.36 165.8 60 159 C49.74664522 132.4960452 33.12212383 112.93691875 7.29443359 100.98144531 C-9.00147541 94.0108607 -25.20043415 91.55961812 -42.8125 91.5625 C-43.62959442 91.56110016 -44.44668884 91.55970032 -45.2885437 91.55825806 C-63.10376218 91.58332321 -79.89438281 93.89211063 -96 102 C-96.5882959 102.28746094 -97.1765918 102.57492187 -97.78271484 102.87109375 C-106.32590594 107.06759628 -113.82363681 111.67997595 -121 118 C-121.81855469 118.67546875 -122.63710938 119.3509375 -123.48046875 120.046875 C-152.47950279 144.684814 -165.73042965 185.89903998 -169.22753906 222.50244141 C-170.14315294 234.05225648 -170.28566819 245.60556051 -170.3125 257.1875 C-170.31626648 258.08385162 -170.32003296 258.98020325 -170.32391357 259.90371704 C-170.35812477 275.93570782 -169.62940569 292.03887141 -165.875 307.6875 C-165.66182129 308.58847412 -165.44864258 309.48944824 -165.22900391 310.41772461 C-159.40931787 334.10576089 -150.94951571 357.17669767 -135 376 C-134.29488281 376.85464844 -133.58976563 377.70929688 -132.86328125 378.58984375 C-123.39286679 389.62449183 -112.60335477 397.43099937 -99.80566406 404.06298828 C-98.28370654 404.85277641 -96.7766832 405.6712469 -95.2734375 406.49609375 C-67.57338141 420.60993185 -30.07461069 419.21572961 -1.23754883 409.9284668 C10.66856895 405.87244845 21.40341707 400.19851959 31 392 C31.79921875 391.35675781 32.5984375 390.71351563 33.421875 390.05078125 C50.25241167 375.91208507 60.42829886 354.43020686 64 333 C99.64 333 135.28 333 172 333 C171.34 337.29 170.68 341.58 170 346 C169.82339844 347.21171875 169.64679688 348.4234375 169.46484375 349.671875 C164.22865939 380.23567703 148.61911987 411.88272276 128 435 C126.82244141 436.32257813 126.82244141 436.32257813 125.62109375 437.671875 C124.08381184 439.38390559 122.53991929 441.09003225 120.98828125 442.7890625 C119.4039618 444.55080083 117.90609002 446.33088787 116.4375 448.1875 C113.25619031 451.85824195 109.71039348 454.87708548 106 458 C105.1234375 458.76441406 104.246875 459.52882813 103.34375 460.31640625 C55.31913822 501.56335104 -8.15598228 515.17558108 -70.14233398 510.53222656 C-121.57769946 505.73862307 -169.2200651 485.12694477 -206.55566406 449.38134766 C-207.83801618 448.15491961 -209.13297661 446.94170513 -210.4296875 445.73046875 C-217.02982696 439.40044176 -222.51244797 432.28642536 -228 425 C-228.41894531 424.4524707 -228.83789062 423.90494141 -229.26953125 423.34082031 C-253.3672473 391.72691188 -267.27086172 354.09027783 -274.25 315.25 C-274.47683472 313.99497681 -274.47683472 313.99497681 -274.70825195 312.71459961 C-275.19529911 309.81514269 -275.61007259 306.91422832 -276 304 C-276.1308046 303.02596725 -276.1308046 303.02596725 -276.26425171 302.03225708 C-278.14396856 287.48713913 -278.34048249 272.9904914 -278.31567383 258.33959961 C-278.31252452 254.46764646 -278.33602828 250.59646824 -278.36132812 246.72460938 C-278.42076851 223.15495038 -276.41772724 199.96779955 -271 177 C-270.78472656 176.0826709 -270.56945312 175.1653418 -270.34765625 174.22021484 C-256.38504014 115.73696897 -222.78320209 63.92657368 -172 31 C-166.14112182 27.40226473 -160.10728157 24.15293512 -154 21 C-153.3203418 20.64454102 -152.64068359 20.28908203 -151.94042969 19.92285156 C-132.51840878 9.87697868 -111.45979691 3.83091341 -90 0 C-88.68201416 -0.24556641 -88.68201416 -0.24556641 -87.33740234 -0.49609375 C-59.29560839 -5.52005387 -27.98647042 -5.094428 0 0 Z " fill="#65FBF0" transform="translate(507,400)"/>
</svg>
